<mxfile host="app.diagrams.net" modified="2024-03-08T06:31:56.414Z" agent="Mozilla/5.0 (Macintosh; Intel Mac OS X 10_15_7) AppleWebKit/537.36 (KHTML, like Gecko) Chrome/122.0.0.0 Safari/537.36" etag="QIXaYfocmF_dJQXr_bS4" version="24.0.2" type="device">
  <diagram name="Page-1" id="0y9Etx5oc4fLhRFaZRCG">
    <mxGraphModel dx="3053" dy="1560" grid="0" gridSize="10" guides="1" tooltips="1" connect="1" arrows="1" fold="1" page="0" pageScale="1" pageWidth="850" pageHeight="1100" math="0" shadow="0">
      <root>
        <mxCell id="0" />
        <mxCell id="1" parent="0" />
        <mxCell id="lcdZj3dTc7RqFMzaXMsq-1" value="" style="edgeStyle=orthogonalEdgeStyle;rounded=0;orthogonalLoop=1;jettySize=auto;html=1;" parent="1" source="lcdZj3dTc7RqFMzaXMsq-2" edge="1">
          <mxGeometry relative="1" as="geometry">
            <mxPoint x="246.25" y="250" as="targetPoint" />
          </mxGeometry>
        </mxCell>
        <mxCell id="lcdZj3dTc7RqFMzaXMsq-2" value="" style="verticalLabelPosition=bottom;verticalAlign=top;html=1;shape=hexagon;perimeter=hexagonPerimeter2;arcSize=6;size=0.27;" parent="1" vertex="1">
          <mxGeometry x="198.75" y="160" width="100" height="60" as="geometry" />
        </mxCell>
        <mxCell id="lcdZj3dTc7RqFMzaXMsq-38" style="edgeStyle=none;curved=1;rounded=0;orthogonalLoop=1;jettySize=auto;html=1;fontSize=12;startSize=8;endSize=8;" parent="1" source="lcdZj3dTc7RqFMzaXMsq-4" target="lcdZj3dTc7RqFMzaXMsq-36" edge="1">
          <mxGeometry relative="1" as="geometry" />
        </mxCell>
        <mxCell id="lcdZj3dTc7RqFMzaXMsq-4" value="start" style="ellipse;whiteSpace=wrap;html=1;" parent="1" vertex="1">
          <mxGeometry x="205.75" y="-42" width="95" height="40" as="geometry" />
        </mxCell>
        <mxCell id="lcdZj3dTc7RqFMzaXMsq-5" value="this.balance = 0&lt;div&gt;let amount&lt;/div&gt;" style="text;html=1;align=center;verticalAlign=middle;resizable=0;points=[];autosize=1;strokeColor=none;fillColor=none;" parent="1" vertex="1">
          <mxGeometry x="193.75" y="170" width="110" height="40" as="geometry" />
        </mxCell>
        <mxCell id="lcdZj3dTc7RqFMzaXMsq-6" value="" style="edgeStyle=orthogonalEdgeStyle;rounded=0;orthogonalLoop=1;jettySize=auto;html=1;" parent="1" source="lcdZj3dTc7RqFMzaXMsq-8" target="lcdZj3dTc7RqFMzaXMsq-14" edge="1">
          <mxGeometry relative="1" as="geometry" />
        </mxCell>
        <mxCell id="lcdZj3dTc7RqFMzaXMsq-7" value="" style="edgeStyle=orthogonalEdgeStyle;rounded=0;orthogonalLoop=1;jettySize=auto;html=1;" parent="1" source="lcdZj3dTc7RqFMzaXMsq-8" edge="1">
          <mxGeometry relative="1" as="geometry">
            <mxPoint x="241.25" y="393" as="targetPoint" />
          </mxGeometry>
        </mxCell>
        <mxCell id="lcdZj3dTc7RqFMzaXMsq-8" value="amount === null" style="rhombus;whiteSpace=wrap;html=1;" parent="1" vertex="1">
          <mxGeometry x="201.25" y="260" width="80" height="80" as="geometry" />
        </mxCell>
        <mxCell id="lcdZj3dTc7RqFMzaXMsq-43" style="edgeStyle=none;curved=1;rounded=0;orthogonalLoop=1;jettySize=auto;html=1;fontSize=12;startSize=8;endSize=8;" parent="1" source="lcdZj3dTc7RqFMzaXMsq-14" target="lcdZj3dTc7RqFMzaXMsq-42" edge="1">
          <mxGeometry relative="1" as="geometry">
            <Array as="points">
              <mxPoint x="-200" y="374" />
            </Array>
          </mxGeometry>
        </mxCell>
        <mxCell id="lcdZj3dTc7RqFMzaXMsq-14" value="Null" style="rounded=0;whiteSpace=wrap;html=1;" parent="1" vertex="1">
          <mxGeometry x="19" y="280" width="110" height="40" as="geometry" />
        </mxCell>
        <mxCell id="lcdZj3dTc7RqFMzaXMsq-44" style="edgeStyle=none;curved=1;rounded=0;orthogonalLoop=1;jettySize=auto;html=1;fontSize=12;startSize=8;endSize=8;" parent="1" source="lcdZj3dTc7RqFMzaXMsq-15" target="lcdZj3dTc7RqFMzaXMsq-42" edge="1">
          <mxGeometry relative="1" as="geometry" />
        </mxCell>
        <mxCell id="lcdZj3dTc7RqFMzaXMsq-15" value="error" style="shape=parallelogram;perimeter=parallelogramPerimeter;whiteSpace=wrap;html=1;fixedSize=1;" parent="1" vertex="1">
          <mxGeometry x="58" y="568" width="100" height="30" as="geometry" />
        </mxCell>
        <mxCell id="lcdZj3dTc7RqFMzaXMsq-16" style="edgeStyle=orthogonalEdgeStyle;rounded=0;orthogonalLoop=1;jettySize=auto;html=1;" parent="1" source="lcdZj3dTc7RqFMzaXMsq-17" target="lcdZj3dTc7RqFMzaXMsq-20" edge="1">
          <mxGeometry relative="1" as="geometry" />
        </mxCell>
        <mxCell id="lcdZj3dTc7RqFMzaXMsq-17" value="result" style="shape=parallelogram;perimeter=parallelogramPerimeter;whiteSpace=wrap;html=1;fixedSize=1;" parent="1" vertex="1">
          <mxGeometry x="323" y="401" width="120" height="40" as="geometry" />
        </mxCell>
        <mxCell id="lcdZj3dTc7RqFMzaXMsq-18" style="edgeStyle=orthogonalEdgeStyle;rounded=0;orthogonalLoop=1;jettySize=auto;html=1;entryX=1;entryY=0.5;entryDx=0;entryDy=0;" parent="1" source="lcdZj3dTc7RqFMzaXMsq-20" target="lcdZj3dTc7RqFMzaXMsq-8" edge="1">
          <mxGeometry relative="1" as="geometry">
            <Array as="points">
              <mxPoint x="579" y="300" />
            </Array>
          </mxGeometry>
        </mxCell>
        <mxCell id="vxHAgj9Gx77cEuIP0ZbN-1" style="edgeStyle=orthogonalEdgeStyle;rounded=0;orthogonalLoop=1;jettySize=auto;html=1;" edge="1" parent="1" source="lcdZj3dTc7RqFMzaXMsq-20" target="lcdZj3dTc7RqFMzaXMsq-26">
          <mxGeometry relative="1" as="geometry" />
        </mxCell>
        <mxCell id="lcdZj3dTc7RqFMzaXMsq-20" value="isNaN(amount) || amount &amp;lt;= 0" style="rhombus;whiteSpace=wrap;html=1;" parent="1" vertex="1">
          <mxGeometry x="520" y="380" width="117.5" height="130" as="geometry" />
        </mxCell>
        <mxCell id="lcdZj3dTc7RqFMzaXMsq-24" value="reject(&quot;Jumlah yang dimasukkan harus berupa angka positif dan lebih besar dari nol.&quot;)" style="shape=parallelogram;perimeter=parallelogramPerimeter;whiteSpace=wrap;html=1;fixedSize=1;" parent="1" vertex="1">
          <mxGeometry x="428" y="250" width="180" height="80" as="geometry" />
        </mxCell>
        <mxCell id="lcdZj3dTc7RqFMzaXMsq-25" value="" style="edgeStyle=orthogonalEdgeStyle;rounded=0;orthogonalLoop=1;jettySize=auto;html=1;" parent="1" source="lcdZj3dTc7RqFMzaXMsq-26" target="lcdZj3dTc7RqFMzaXMsq-28" edge="1">
          <mxGeometry relative="1" as="geometry" />
        </mxCell>
        <mxCell id="lcdZj3dTc7RqFMzaXMsq-26" value="this.balance += amount" style="rounded=0;whiteSpace=wrap;html=1;" parent="1" vertex="1">
          <mxGeometry x="518.75" y="601" width="120" height="60" as="geometry" />
        </mxCell>
        <mxCell id="lcdZj3dTc7RqFMzaXMsq-40" style="edgeStyle=none;curved=1;rounded=0;orthogonalLoop=1;jettySize=auto;html=1;fontSize=12;startSize=8;endSize=8;" parent="1" source="lcdZj3dTc7RqFMzaXMsq-28" target="lcdZj3dTc7RqFMzaXMsq-37" edge="1">
          <mxGeometry relative="1" as="geometry" />
        </mxCell>
        <mxCell id="lcdZj3dTc7RqFMzaXMsq-28" value="resolve(`Saldo berhasil ditambahkan. Saldo sekarang:" style="shape=parallelogram;perimeter=parallelogramPerimeter;whiteSpace=wrap;html=1;fixedSize=1;rounded=0;" parent="1" vertex="1">
          <mxGeometry x="518.75" y="752" width="120" height="60" as="geometry" />
        </mxCell>
        <mxCell id="lcdZj3dTc7RqFMzaXMsq-29" value="" style="edgeStyle=orthogonalEdgeStyle;rounded=0;orthogonalLoop=1;jettySize=auto;html=1;" parent="1" source="lcdZj3dTc7RqFMzaXMsq-31" target="lcdZj3dTc7RqFMzaXMsq-32" edge="1">
          <mxGeometry relative="1" as="geometry" />
        </mxCell>
        <mxCell id="lcdZj3dTc7RqFMzaXMsq-30" value="" style="edgeStyle=orthogonalEdgeStyle;rounded=0;orthogonalLoop=1;jettySize=auto;html=1;" parent="1" source="lcdZj3dTc7RqFMzaXMsq-31" target="lcdZj3dTc7RqFMzaXMsq-34" edge="1">
          <mxGeometry relative="1" as="geometry" />
        </mxCell>
        <mxCell id="lcdZj3dTc7RqFMzaXMsq-31" value="isNaN(amount) || amount &amp;lt;= 0 || amount &amp;gt; this.balance" style="rhombus;whiteSpace=wrap;html=1;" parent="1" vertex="1">
          <mxGeometry x="333" y="901" width="80" height="80" as="geometry" />
        </mxCell>
        <mxCell id="lcdZj3dTc7RqFMzaXMsq-32" value="reject(&quot;Jumlah yang dimasukkan harus berupa angka positif dan tidak lebih besar dari saldo." style="shape=parallelogram;perimeter=parallelogramPerimeter;whiteSpace=wrap;html=1;fixedSize=1;" parent="1" vertex="1">
          <mxGeometry x="311" y="1042" width="120" height="60" as="geometry" />
        </mxCell>
        <mxCell id="lcdZj3dTc7RqFMzaXMsq-33" value="" style="edgeStyle=orthogonalEdgeStyle;rounded=0;orthogonalLoop=1;jettySize=auto;html=1;" parent="1" source="lcdZj3dTc7RqFMzaXMsq-34" target="lcdZj3dTc7RqFMzaXMsq-35" edge="1">
          <mxGeometry relative="1" as="geometry" />
        </mxCell>
        <mxCell id="lcdZj3dTc7RqFMzaXMsq-34" value="this.balance -= amount" style="whiteSpace=wrap;html=1;" parent="1" vertex="1">
          <mxGeometry x="145" y="921" width="106.25" height="40" as="geometry" />
        </mxCell>
        <mxCell id="vxHAgj9Gx77cEuIP0ZbN-3" style="edgeStyle=orthogonalEdgeStyle;rounded=0;orthogonalLoop=1;jettySize=auto;html=1;" edge="1" parent="1" source="lcdZj3dTc7RqFMzaXMsq-35" target="lcdZj3dTc7RqFMzaXMsq-42">
          <mxGeometry relative="1" as="geometry" />
        </mxCell>
        <mxCell id="lcdZj3dTc7RqFMzaXMsq-35" value="resolve(`Saldo berhasil dikurangi. Saldo sekarang: ${this.balance}" style="shape=parallelogram;perimeter=parallelogramPerimeter;whiteSpace=wrap;html=1;fixedSize=1;" parent="1" vertex="1">
          <mxGeometry x="165.125" y="1012" width="120" height="60" as="geometry" />
        </mxCell>
        <mxCell id="lcdZj3dTc7RqFMzaXMsq-36" value="Masukkan jumlah uang untuk deposit" style="shape=parallelogram;perimeter=parallelogramPerimeter;whiteSpace=wrap;html=1;fixedSize=1;" parent="1" vertex="1">
          <mxGeometry x="188.75" y="46" width="120" height="60" as="geometry" />
        </mxCell>
        <mxCell id="lcdZj3dTc7RqFMzaXMsq-41" style="edgeStyle=none;curved=1;rounded=0;orthogonalLoop=1;jettySize=auto;html=1;fontSize=12;startSize=8;endSize=8;" parent="1" source="lcdZj3dTc7RqFMzaXMsq-37" target="lcdZj3dTc7RqFMzaXMsq-31" edge="1">
          <mxGeometry relative="1" as="geometry" />
        </mxCell>
        <mxCell id="lcdZj3dTc7RqFMzaXMsq-37" value="Masukkan jumlah uang untuk withdraw:" style="shape=parallelogram;perimeter=parallelogramPerimeter;whiteSpace=wrap;html=1;fixedSize=1;" parent="1" vertex="1">
          <mxGeometry x="499" y="917" width="120" height="60" as="geometry" />
        </mxCell>
        <mxCell id="lcdZj3dTc7RqFMzaXMsq-39" style="edgeStyle=none;curved=1;rounded=0;orthogonalLoop=1;jettySize=auto;html=1;entryX=0.5;entryY=-0.018;entryDx=0;entryDy=0;entryPerimeter=0;fontSize=12;startSize=8;endSize=8;" parent="1" source="lcdZj3dTc7RqFMzaXMsq-36" target="lcdZj3dTc7RqFMzaXMsq-5" edge="1">
          <mxGeometry relative="1" as="geometry" />
        </mxCell>
        <mxCell id="lcdZj3dTc7RqFMzaXMsq-42" value="end" style="ellipse;whiteSpace=wrap;html=1;" parent="1" vertex="1">
          <mxGeometry x="-68" y="945" width="120" height="80" as="geometry" />
        </mxCell>
        <mxCell id="vxHAgj9Gx77cEuIP0ZbN-2" style="edgeStyle=orthogonalEdgeStyle;rounded=0;orthogonalLoop=1;jettySize=auto;html=1;entryX=0.561;entryY=0.981;entryDx=0;entryDy=0;entryPerimeter=0;" edge="1" parent="1" source="lcdZj3dTc7RqFMzaXMsq-32" target="lcdZj3dTc7RqFMzaXMsq-37">
          <mxGeometry relative="1" as="geometry" />
        </mxCell>
        <mxCell id="vxHAgj9Gx77cEuIP0ZbN-4" value="ya" style="text;html=1;align=center;verticalAlign=middle;resizable=0;points=[];autosize=1;strokeColor=none;fillColor=none;" vertex="1" parent="1">
          <mxGeometry x="139" y="270" width="31" height="26" as="geometry" />
        </mxCell>
        <mxCell id="vxHAgj9Gx77cEuIP0ZbN-5" value="tidak" style="text;html=1;align=center;verticalAlign=middle;resizable=0;points=[];autosize=1;strokeColor=none;fillColor=none;" vertex="1" parent="1">
          <mxGeometry x="191" y="334" width="43" height="26" as="geometry" />
        </mxCell>
        <mxCell id="vxHAgj9Gx77cEuIP0ZbN-15" style="edgeStyle=orthogonalEdgeStyle;rounded=0;orthogonalLoop=1;jettySize=auto;html=1;entryX=0;entryY=0.25;entryDx=0;entryDy=0;" edge="1" parent="1" source="vxHAgj9Gx77cEuIP0ZbN-8" target="lcdZj3dTc7RqFMzaXMsq-17">
          <mxGeometry relative="1" as="geometry" />
        </mxCell>
        <mxCell id="vxHAgj9Gx77cEuIP0ZbN-8" value="Try&lt;div&gt;result = action&lt;br&gt;&lt;/div&gt;" style="rounded=0;whiteSpace=wrap;html=1;" vertex="1" parent="1">
          <mxGeometry x="191" y="393" width="102.25" height="43" as="geometry" />
        </mxCell>
        <mxCell id="vxHAgj9Gx77cEuIP0ZbN-18" style="edgeStyle=orthogonalEdgeStyle;rounded=0;orthogonalLoop=1;jettySize=auto;html=1;entryX=0.5;entryY=0;entryDx=0;entryDy=0;" edge="1" parent="1" source="vxHAgj9Gx77cEuIP0ZbN-10" target="lcdZj3dTc7RqFMzaXMsq-15">
          <mxGeometry relative="1" as="geometry" />
        </mxCell>
        <mxCell id="vxHAgj9Gx77cEuIP0ZbN-10" value="catch" style="rhombus;whiteSpace=wrap;html=1;" vertex="1" parent="1">
          <mxGeometry x="198.75" y="503" width="80" height="80" as="geometry" />
        </mxCell>
        <mxCell id="vxHAgj9Gx77cEuIP0ZbN-13" style="edgeStyle=orthogonalEdgeStyle;rounded=0;orthogonalLoop=1;jettySize=auto;html=1;entryX=0.5;entryY=0;entryDx=0;entryDy=0;exitX=0.5;exitY=1;exitDx=0;exitDy=0;" edge="1" parent="1" source="vxHAgj9Gx77cEuIP0ZbN-8" target="vxHAgj9Gx77cEuIP0ZbN-10">
          <mxGeometry relative="1" as="geometry">
            <mxPoint x="242.125" y="485" as="sourcePoint" />
          </mxGeometry>
        </mxCell>
        <mxCell id="vxHAgj9Gx77cEuIP0ZbN-16" value="ya" style="text;html=1;align=center;verticalAlign=middle;resizable=0;points=[];autosize=1;strokeColor=none;fillColor=none;" vertex="1" parent="1">
          <mxGeometry x="302" y="379" width="31" height="26" as="geometry" />
        </mxCell>
        <mxCell id="vxHAgj9Gx77cEuIP0ZbN-17" value="tidak" style="text;html=1;align=center;verticalAlign=middle;resizable=0;points=[];autosize=1;strokeColor=none;fillColor=none;" vertex="1" parent="1">
          <mxGeometry x="247" y="460" width="43" height="26" as="geometry" />
        </mxCell>
        <mxCell id="vxHAgj9Gx77cEuIP0ZbN-19" value="ya" style="text;html=1;align=center;verticalAlign=middle;resizable=0;points=[];autosize=1;strokeColor=none;fillColor=none;" vertex="1" parent="1">
          <mxGeometry x="588" y="342" width="31" height="26" as="geometry" />
        </mxCell>
        <mxCell id="vxHAgj9Gx77cEuIP0ZbN-20" value="tidak" style="text;html=1;align=center;verticalAlign=middle;resizable=0;points=[];autosize=1;strokeColor=none;fillColor=none;" vertex="1" parent="1">
          <mxGeometry x="588" y="535" width="43" height="26" as="geometry" />
        </mxCell>
        <mxCell id="vxHAgj9Gx77cEuIP0ZbN-21" value="ya" style="text;html=1;align=center;verticalAlign=middle;resizable=0;points=[];autosize=1;strokeColor=none;fillColor=none;" vertex="1" parent="1">
          <mxGeometry x="372" y="982" width="31" height="26" as="geometry" />
        </mxCell>
        <mxCell id="vxHAgj9Gx77cEuIP0ZbN-22" value="tidak" style="text;html=1;align=center;verticalAlign=middle;resizable=0;points=[];autosize=1;strokeColor=none;fillColor=none;" vertex="1" parent="1">
          <mxGeometry x="271" y="914" width="43" height="26" as="geometry" />
        </mxCell>
      </root>
    </mxGraphModel>
  </diagram>
</mxfile>
